<?xml version="1.0" encoding="UTF-8" standalone="yes"?>
<svg xmlns="http://www.w3.org/2000/svg" xmlns:xlink="http://www.w3.org/1999/xlink" width="136.806pt" height="71.461pt" version="1.1" viewBox="-218.086 499.569 136.806 71.461">
  <!--
	Exported with Concepts: Smarter Sketching
	Version: 969 on iOS 14.6
	https://concepts.app/
	-->
  <title>Stupid Simple Logo</title>
  <desc>Drawing exported from Concepts: Smarter Sketching</desc>
  <defs></defs>
  <g id="Pen" opacity="1.000">
    <path id="STROKE_58ffb949-0bc4-4087-80d8-fab2ed0042e0" opacity="1.000" fill="none" stroke="#000000" stroke-width="3.500" stroke-opacity="1.000" stroke-linecap="round" stroke-linejoin="round" d="M -178.242 508.203 Q -178.298 507.618 -178.456 507.144 Q -178.615 506.670 -178.907 506.313 Q -179.198 505.957 -179.397 505.783 Q -179.595 505.608 -179.784 505.482 Q -179.972 505.356 -180.252 505.164 Q -180.532 504.971 -182.262 504.271 Q -183.992 503.571 -186.604 503.290 Q -189.215 503.008 -191.276 503.324 Q -193.337 503.641 -195.776 504.777 Q -198.214 505.913 -200.621 507.741 Q -203.028 509.570 -204.905 511.682 Q -206.782 513.795 -207.872 515.469 Q -208.963 517.143 -209.525 518.780 Q -210.086 520.417 -210.096 521.541 Q -210.106 522.666 -209.736 523.563 Q -209.366 524.460 -207.782 525.304 Q -206.198 526.148 -202.736 526.604 Q -199.273 527.060 -197.509 527.234 Q -195.744 527.409 -193.024 528.026 Q -190.304 528.643 -187.572 529.872 Q -184.841 531.101 -183.259 532.072 Q -181.677 533.044 -180.328 534.365 Q -178.979 535.686 -178.361 536.583 Q -177.743 537.480 -177.405 538.053 Q -177.067 538.627 -176.469 540.582 Q -175.871 542.537 -175.775 544.848 Q -175.679 547.158 -175.887 548.923 Q -176.095 550.688 -176.962 552.256 Q -177.828 553.825 -178.505 554.589 Q -179.181 555.354 -180.430 556.393 Q -181.679 557.432 -183.768 558.369 Q -185.858 559.306 -188.374 559.809 Q -190.889 560.312 -193.790 560.374 Q -196.690 560.435 -199.418 560.005 Q -202.146 559.574 -204.347 558.646 Q -206.548 557.718 -207.793 556.959 Q -209.038 556.201 -210.091 554.950 Q -211.144 553.698 -211.527 552.692 Q -211.911 551.686 -212.059 550.826 Q -212.207 549.965 -212.209 548.394 Q -212.212 546.823 -211.366 544.534 "></path>
    <path id="STROKE_bc59c49f-134b-4724-a9b1-b8866cdd054c" opacity="1.000" fill="none" stroke="#000000" stroke-width="3.500" stroke-opacity="1.000" stroke-linecap="round" stroke-linejoin="round" d="M -172.764 528.345 Q -172.381 528.920 -171.367 531.028 Q -170.354 533.135 -169.275 535.213 Q -168.196 537.291 -167.550 538.342 Q -166.904 539.393 -166.172 540.500 Q -165.440 541.606 -163.306 543.151 Q -161.172 544.697 -160.669 544.991 "></path>
    <path id="STROKE_8412e8a2-020f-4a0e-ad26-1d32f02cc0da" opacity="1.000" fill="none" stroke="#000000" stroke-width="3.500" stroke-opacity="1.000" stroke-linecap="round" stroke-linejoin="round" d="M -155.959 526.468 Q -156.060 526.982 -157.960 533.959 Q -159.861 540.936 -160.962 544.633 Q -162.063 548.330 -163.082 551.801 Q -164.101 555.272 -165.496 560.259 Q -166.891 565.246 -166.948 565.434 "></path>
    <path id="STROKE_fcc12d62-0e24-4bd6-8db0-aaad3a1ef5a8" opacity="1.000" fill="none" stroke="#000000" stroke-width="3.500" stroke-opacity="1.000" stroke-linecap="round" stroke-linejoin="round" d="M -130.916 525.129 L -130.956 524.761 Q -131.202 524.021 -131.306 523.982 Q -131.679 523.569 -134.098 523.259 Q -136.518 522.949 -137.761 523.002 Q -139.005 523.055 -141.260 523.910 Q -143.515 524.765 -145.694 526.255 Q -147.873 527.744 -149.392 529.290 Q -150.911 530.836 -151.654 532.278 Q -152.397 533.720 -152.518 534.714 Q -152.638 535.707 -152.433 536.277 Q -152.229 536.846 -151.759 537.253 Q -151.290 537.659 -149.336 537.863 Q -147.382 538.067 -144.952 537.932 Q -142.523 537.797 -140.356 537.813 Q -138.189 537.829 -136.443 538.179 Q -134.698 538.529 -133.523 539.064 Q -132.348 539.598 -131.166 540.810 Q -129.984 542.022 -129.499 544.690 Q -129.015 547.359 -129.275 549.742 Q -129.535 552.125 -130.244 553.668 Q -130.954 555.212 -131.536 556.066 Q -132.118 556.919 -133.512 558.079 Q -134.906 559.238 -136.785 559.984 Q -138.663 560.730 -140.982 560.973 Q -143.301 561.217 -145.442 560.915 Q -147.583 560.613 -149.515 559.604 Q -151.447 558.596 -152.757 557.365 Q -154.067 556.134 -154.670 555.213 Q -155.273 554.292 -155.357 552.238 Q -155.441 550.184 -155.338 549.627 "></path>
    <path id="STROKE_ba1469e3-0388-41df-94d3-15bb6b3e944a" opacity="1.000" fill="none" stroke="#000000" stroke-width="3.500" stroke-opacity="1.000" stroke-linecap="round" stroke-linejoin="round" d="M -122.269 558.964 L -122.269 558.964 "></path>
    <path id="STROKE_3376791c-f8a4-4cb5-98e5-b6334f029fcd" opacity="1.000" fill="none" stroke="#000000" stroke-width="3.500" stroke-opacity="1.000" stroke-linecap="round" stroke-linejoin="round" d="M -86.488 552.403 Q -86.487 552.492 -86.488 552.581 Q -86.490 552.670 -86.493 552.759 Q -86.496 552.848 -86.501 552.937 Q -86.506 553.026 -86.513 553.114 Q -86.520 553.203 -86.529 553.292 Q -86.539 553.380 -86.550 553.468 Q -86.561 553.557 -86.574 553.645 Q -86.587 553.733 -86.603 553.820 Q -86.618 553.908 -86.635 553.995 Q -86.652 554.083 -86.672 554.170 Q -86.691 554.257 -86.712 554.343 Q -86.733 554.430 -86.757 554.516 Q -86.780 554.602 -86.805 554.687 Q -86.830 554.772 -86.858 554.857 Q -86.885 554.942 -86.914 555.026 Q -86.943 555.111 -86.974 555.194 Q -87.005 555.278 -87.038 555.361 Q -87.071 555.443 -87.106 555.526 Q -87.141 555.608 -87.177 555.689 Q -87.214 555.770 -87.253 555.851 Q -87.291 555.931 -87.332 556.011 Q -87.372 556.090 -87.414 556.169 Q -87.456 556.248 -87.500 556.326 Q -87.544 556.403 -87.590 556.480 Q -87.636 556.557 -87.684 556.632 Q -87.731 556.708 -87.780 556.783 Q -87.830 556.857 -87.881 556.931 Q -87.932 557.004 -87.984 557.077 Q -88.037 557.149 -88.091 557.220 Q -88.146 557.291 -88.201 557.361 Q -88.257 557.431 -88.315 557.500 Q -88.372 557.568 -88.431 557.636 Q -88.491 557.703 -88.551 557.769 Q -88.612 557.835 -88.674 557.900 Q -88.736 557.964 -88.800 558.028 Q -88.863 558.091 -88.928 558.153 Q -88.993 558.215 -89.060 558.275 Q -89.126 558.335 -89.194 558.394 Q -89.262 558.453 -89.331 558.510 Q -89.400 558.568 -89.470 558.624 Q -89.541 558.680 -89.612 558.734 Q -89.684 558.788 -89.757 558.841 Q -89.830 558.893 -89.904 558.944 Q -89.978 558.995 -90.053 559.044 Q -90.129 559.094 -90.205 559.141 Q -90.281 559.189 -90.359 559.235 Q -90.436 559.281 -90.515 559.325 Q -90.593 559.369 -90.673 559.412 Q -90.752 559.454 -90.832 559.495 Q -90.913 559.536 -90.994 559.574 Q -91.076 559.613 -91.158 559.650 Q -91.240 559.687 -91.323 559.723 Q -91.406 559.758 -91.490 559.791 Q -91.574 559.824 -91.658 559.856 Q -91.743 559.887 -91.828 559.917 Q -91.913 559.947 -91.999 559.974 Q -92.085 560.002 -92.172 560.028 Q -92.258 560.054 -92.346 560.077 Q -92.433 560.101 -92.520 560.123 Q -92.608 560.145 -92.696 560.165 Q -92.784 560.185 -92.873 560.203 Q -92.961 560.221 -93.050 560.237 Q -93.139 560.253 -93.228 560.267 Q -93.318 560.281 -93.407 560.293 Q -93.497 560.305 -93.587 560.315 Q -93.677 560.325 -93.767 560.333 Q -93.857 560.341 -93.947 560.347 Q -94.037 560.353 -94.127 560.357 Q -94.218 560.361 -94.308 560.363 Q -94.399 560.365 -94.489 560.365 Q -94.579 560.365 -94.670 560.363 Q -94.760 560.361 -94.851 560.357 Q -94.941 560.353 -95.031 560.347 Q -95.121 560.341 -95.211 560.333 Q -95.301 560.325 -95.391 560.315 Q -95.481 560.305 -95.571 560.293 Q -95.660 560.281 -95.750 560.267 Q -95.839 560.253 -95.928 560.237 Q -96.017 560.221 -96.105 560.203 Q -96.194 560.185 -96.282 560.165 Q -96.370 560.145 -96.458 560.123 Q -96.545 560.101 -96.632 560.077 Q -96.720 560.053 -96.806 560.028 Q -96.893 560.002 -96.979 559.974 Q -97.065 559.947 -97.150 559.917 Q -97.235 559.887 -97.320 559.856 Q -97.404 559.825 -97.488 559.791 Q -97.572 559.758 -97.655 559.723 Q -97.738 559.687 -97.820 559.650 Q -97.902 559.613 -97.984 559.574 Q -98.065 559.536 -98.146 559.495 Q -98.226 559.454 -98.305 559.412 Q -98.385 559.369 -98.463 559.325 Q -98.542 559.281 -98.619 559.235 Q -98.697 559.189 -98.773 559.141 Q -98.849 559.094 -98.925 559.045 Q -99.000 558.995 -99.074 558.944 Q -99.148 558.893 -99.221 558.841 Q -99.294 558.788 -99.366 558.734 Q -99.437 558.680 -99.508 558.624 Q -99.578 558.568 -99.647 558.510 Q -99.716 558.453 -99.784 558.394 Q -99.852 558.335 -99.918 558.275 Q -99.985 558.215 -100.050 558.153 Q -100.115 558.091 -100.178 558.028 Q -100.242 557.964 -100.304 557.900 Q -100.366 557.835 -100.427 557.769 Q -100.487 557.703 -100.547 557.636 Q -100.606 557.568 -100.663 557.500 Q -100.721 557.431 -100.777 557.361 Q -100.832 557.291 -100.887 557.220 Q -100.941 557.149 -100.994 557.077 Q -101.046 557.004 -101.097 556.931 Q -101.148 556.857 -101.198 556.783 Q -101.247 556.708 -101.294 556.632 Q -101.342 556.557 -101.388 556.480 Q -101.434 556.403 -101.478 556.326 Q -101.522 556.248 -101.564 556.169 Q -101.606 556.090 -101.646 556.011 Q -101.687 555.931 -101.725 555.851 Q -101.764 555.770 -101.801 555.689 Q -101.837 555.608 -101.872 555.526 Q -101.907 555.443 -101.940 555.361 Q -101.973 555.278 -102.004 555.194 Q -102.035 555.111 -102.064 555.026 Q -102.093 554.942 -102.120 554.857 Q -102.148 554.772 -102.173 554.687 Q -102.198 554.602 -102.221 554.516 Q -102.245 554.430 -102.266 554.343 Q -102.287 554.257 -102.306 554.170 Q -102.326 554.083 -102.343 553.995 Q -102.360 553.908 -102.375 553.820 Q -102.391 553.733 -102.404 553.645 Q -102.417 553.557 -102.428 553.468 Q -102.440 553.380 -102.449 553.292 Q -102.458 553.203 -102.465 553.114 Q -102.472 553.026 -102.477 552.937 Q -102.482 552.848 -102.485 552.759 Q -102.489 552.670 -102.490 552.581 Q -102.491 552.492 -102.490 552.403 Q -102.489 552.314 -102.485 552.225 Q -102.482 552.136 -102.477 552.048 Q -102.472 551.959 -102.465 551.870 Q -102.458 551.781 -102.449 551.693 Q -102.440 551.604 -102.428 551.516 Q -102.417 551.428 -102.404 551.340 Q -102.391 551.252 -102.375 551.164 Q -102.360 551.076 -102.343 550.989 Q -102.326 550.902 -102.306 550.815 Q -102.287 550.728 -102.266 550.641 Q -102.245 550.555 -102.221 550.469 Q -102.198 550.383 -102.173 550.297 Q -102.148 550.212 -102.120 550.127 Q -102.093 550.042 -102.064 549.958 Q -102.035 549.874 -102.004 549.790 Q -101.973 549.707 -101.940 549.624 Q -101.907 549.541 -101.872 549.459 Q -101.837 549.377 -101.801 549.295 Q -101.764 549.214 -101.725 549.134 Q -101.687 549.053 -101.646 548.974 Q -101.606 548.894 -101.564 548.815 Q -101.522 548.737 -101.478 548.659 Q -101.434 548.581 -101.388 548.505 Q -101.342 548.428 -101.294 548.352 Q -101.247 548.276 -101.198 548.202 Q -101.148 548.127 -101.097 548.054 Q -101.046 547.980 -100.994 547.908 Q -100.941 547.836 -100.887 547.764 Q -100.832 547.693 -100.777 547.623 Q -100.721 547.553 -100.663 547.485 Q -100.606 547.416 -100.547 547.349 Q -100.487 547.281 -100.427 547.215 Q -100.366 547.149 -100.304 547.085 Q -100.242 547.020 -100.178 546.957 Q -100.115 546.893 -100.050 546.832 Q -99.985 546.770 -99.918 546.709 Q -99.852 546.649 -99.784 546.590 Q -99.716 546.531 -99.647 546.474 Q -99.578 546.417 -99.508 546.361 Q -99.437 546.305 -99.366 546.251 Q -99.294 546.196 -99.221 546.144 Q -99.148 546.091 -99.074 546.040 Q -99.000 545.989 -98.925 545.940 Q -98.849 545.891 -98.773 545.843 Q -98.697 545.795 -98.619 545.749 Q -98.542 545.703 -98.463 545.659 Q -98.385 545.615 -98.305 545.573 Q -98.226 545.530 -98.146 545.490 Q -98.065 545.449 -97.984 545.410 Q -97.902 545.371 -97.820 545.334 Q -97.738 545.297 -97.655 545.262 Q -97.572 545.227 -97.488 545.193 Q -97.404 545.160 -97.320 545.128 Q -97.235 545.097 -97.150 545.067 Q -97.065 545.038 -96.979 545.010 Q -96.893 544.982 -96.806 544.957 Q -96.720 544.931 -96.633 544.907 Q -96.545 544.883 -96.458 544.861 Q -96.370 544.839 -96.282 544.819 Q -96.194 544.800 -96.105 544.782 Q -96.017 544.764 -95.928 544.748 Q -95.839 544.732 -95.750 544.718 Q -95.660 544.704 -95.571 544.692 Q -95.481 544.680 -95.391 544.669 Q -95.301 544.659 -95.211 544.651 Q -95.121 544.643 -95.031 544.637 Q -94.941 544.631 -94.851 544.627 Q -94.760 544.623 -94.670 544.621 Q -94.579 544.619 -94.489 544.619 Q -94.399 544.619 -94.308 544.621 Q -94.218 544.623 -94.127 544.627 Q -94.037 544.631 -93.947 544.637 Q -93.857 544.643 -93.767 544.651 Q -93.677 544.659 -93.587 544.669 Q -93.497 544.680 -93.407 544.692 Q -93.318 544.704 -93.228 544.718 Q -93.139 544.732 -93.050 544.748 Q -92.961 544.764 -92.873 544.782 Q -92.784 544.800 -92.696 544.819 Q -92.608 544.839 -92.520 544.861 Q -92.433 544.883 -92.345 544.907 Q -92.258 544.931 -92.172 544.957 Q -92.085 544.982 -91.999 545.010 Q -91.913 545.038 -91.828 545.067 Q -91.743 545.097 -91.658 545.128 Q -91.574 545.160 -91.490 545.193 Q -91.406 545.227 -91.323 545.262 Q -91.240 545.297 -91.158 545.334 Q -91.076 545.371 -90.994 545.410 Q -90.913 545.449 -90.832 545.490 Q -90.752 545.530 -90.673 545.573 Q -90.593 545.615 -90.515 545.659 Q -90.436 545.704 -90.359 545.749 Q -90.281 545.795 -90.205 545.843 Q -90.128 545.891 -90.053 545.940 Q -89.978 545.989 -89.904 546.040 Q -89.830 546.091 -89.757 546.144 Q -89.684 546.197 -89.612 546.251 Q -89.541 546.305 -89.470 546.361 Q -89.400 546.417 -89.331 546.474 Q -89.261 546.531 -89.194 546.590 Q -89.126 546.649 -89.059 546.709 Q -88.993 546.770 -88.928 546.832 Q -88.863 546.893 -88.799 546.957 Q -88.736 547.020 -88.674 547.085 Q -88.612 547.149 -88.551 547.215 Q -88.490 547.281 -88.431 547.349 Q -88.372 547.416 -88.315 547.485 Q -88.257 547.554 -88.201 547.623 Q -88.145 547.693 -88.091 547.765 Q -88.037 547.836 -87.984 547.908 Q -87.932 547.980 -87.881 548.054 Q -87.830 548.127 -87.780 548.202 Q -87.731 548.276 -87.684 548.352 Q -87.636 548.428 -87.590 548.505 Q -87.544 548.581 -87.500 548.659 Q -87.456 548.737 -87.414 548.815 Q -87.372 548.894 -87.331 548.974 Q -87.291 549.053 -87.252 549.134 Q -87.214 549.214 -87.177 549.296 Q -87.140 549.377 -87.106 549.459 Q -87.071 549.541 -87.038 549.624 Q -87.005 549.707 -86.974 549.790 Q -86.943 549.874 -86.914 549.958 Q -86.885 550.042 -86.857 550.127 Q -86.830 550.212 -86.805 550.298 Q -86.780 550.383 -86.757 550.469 Q -86.733 550.555 -86.712 550.641 Q -86.691 550.728 -86.672 550.815 Q -86.652 550.902 -86.635 550.989 Q -86.618 551.076 -86.603 551.164 Q -86.587 551.252 -86.574 551.340 Q -86.561 551.428 -86.550 551.516 Q -86.538 551.604 -86.529 551.693 Q -86.520 551.782 -86.513 551.870 Q -86.506 551.959 -86.501 552.048 Q -86.496 552.137 -86.493 552.225 Q -86.490 552.314 -86.488 552.403 Z"></path>
    <path id="STROKE_06ebaf3c-9801-42e5-9524-6e4295cf2361" opacity="1.000" fill="none" stroke="#000000" stroke-width="3.500" stroke-opacity="1.000" stroke-linecap="round" stroke-linejoin="round" d="M -111.221 546.209 L -111.114 559.765 "></path>
    <circle id="STROKE_87a387bf-8658-4204-ab93-b74b6a8f3b86" opacity="1.000" fill="#000000" stroke="#000000" stroke-width="0.1" stroke-opacity="1.000" fill-opacity="1.000" cx="-111.844" cy="529.087" r="1.750"></circle>
    <path id="STROKE_7c681e3e-9a77-4ad4-a802-7cb6d8e57be8" opacity="1.000" fill="none" stroke="#000000" stroke-width="2.000" stroke-opacity="1.000" stroke-linecap="round" stroke-linejoin="round" d="M -84.049 567.725 L -160.861 568.007 "></path>
    <path id="STROKE_c4166b8c-5bea-4874-9526-91234919c093" opacity="1.000" fill="none" stroke="#000000" stroke-width="2.000" stroke-opacity="1.000" stroke-linecap="round" stroke-linejoin="round" d="M -172.179 568.051 L -215.317 568.190 "></path>
  </g>
</svg>